<svg width="24" height="33" viewBox="0 0 24 33" fill="none" xmlns="http://www.w3.org/2000/svg">
<path d="M12 14.5C15.9 14.5 19 11.4 19 7.5C19 3.6 15.9 0.5 12 0.5C8.1 0.5 5 3.6 5 7.5C5 11.4 8.1 14.5 12 14.5ZM12 2.5C14.8 2.5 17 4.7 17 7.5C17 10.3 14.8 12.5 12 12.5C9.2 12.5 7 10.3 7 7.5C7 4.7 9.2 2.5 12 2.5Z" fill="black"/>
<path d="M13.9 16.6C13.8 16.6 13.6 16.6 13.5 16.5C13.3 16.5 13.2 16.5 13 16.4C12.7 16.4 12.4 16.4 12.1 16.4H12H11.9C11.6 16.4 11.3 16.4 11 16.4C10.8 16.4 10.7 16.4 10.5 16.5C10.4 16.5 10.2 16.5 10.1 16.6C4.3 17.5 0 22.5 0 28.4C0 30.7 1.8 32.5 4 32.5H6.1H17.8H19.9C22.1 32.5 24 30.7 24 28.4C24 22.5 19.6 17.5 13.9 16.6ZM19.9 30.5H17.8H6.2H4C2.9 30.5 1.9 29.6 1.9 28.4C1.9 24.9 3.8 21.7 6.6 20C6.6 20 6.6 20 6.7 20C7.9 19.3 9.2 18.8 10.5 18.6H10.6C11 18.5 11.5 18.5 11.9 18.5C12.3 18.5 12.8 18.5 13.2 18.6H13.3C14.7 18.8 16 19.3 17.1 20C17.1 20 17.1 20 17.2 20C20 21.8 21.9 24.9 21.9 28.4C22 29.6 21.1 30.5 19.9 30.5Z" fill="black"/>
</svg>
